<svg width="40" height="40" viewBox="0 0 40 40" fill="none" xmlns="http://www.w3.org/2000/svg">
<path d="M20 18.1941C18.4951 18.1941 17.216 17.6674 16.1625 16.614C15.1091 15.5606 14.5824 14.2814 14.5824 12.7765C14.5824 11.2716 15.1091 9.99248 16.1625 8.93905C17.216 7.88563 18.4951 7.35892 20 7.35892C21.5049 7.35892 22.784 7.88563 23.8375 8.93905C24.8909 9.99248 25.4176 11.2716 25.4176 12.7765C25.4176 14.2814 24.8909 15.5606 23.8375 16.614C22.784 17.6674 21.5049 18.1941 20 18.1941ZM20 15.4853C20.7524 15.4853 21.392 15.222 21.9187 14.6953C22.4454 14.1685 22.7088 13.529 22.7088 12.7765C22.7088 12.0241 22.4454 11.3845 21.9187 10.8578C21.392 10.3311 20.7524 10.0677 20 10.0677C19.2476 10.0677 18.608 10.3311 18.0813 10.8578C17.5546 11.3845 17.2912 12.0241 17.2912 12.7765C17.2912 13.529 17.5546 14.1685 18.0813 14.6953C18.608 15.222 19.2476 15.4853 20 15.4853ZM9.16479 29.0293V25.5982C9.16479 24.8157 9.37547 24.1384 9.79684 23.5666C10.2182 22.9947 10.9105 22.453 11.8736 21.9413C13.1377 21.2792 14.447 20.7901 15.8014 20.474C17.1558 20.158 18.5553 20 20 20C21.4447 20 22.8442 20.158 24.1986 20.474C25.553 20.7901 26.8623 21.2792 28.1264 21.9413C29.0895 22.453 29.7818 22.9947 30.2032 23.5666C30.6245 24.1384 30.8352 24.8157 30.8352 25.5982V29.0293H9.16479ZM20 22.7088C18.5553 22.7088 17.1558 22.9044 15.8014 23.2957C14.447 23.687 13.1377 24.2739 11.8736 25.0564V26.3205H28.1264V25.0564C26.8623 24.2739 25.553 23.687 24.1986 23.2957C22.8442 22.9044 21.4447 22.7088 20 22.7088ZM37.4718 12.6862C36.5087 10.3988 35.1392 8.36719 33.3634 6.59142C31.5877 4.81565 29.5711 3.4462 27.3138 2.48307L28.3521 0C30.9707 1.08352 33.2882 2.63356 35.3047 4.65011C37.3213 6.66667 38.8864 8.99925 40 11.6479L37.4718 12.6862ZM2.52822 12.6862L0 11.6479C1.11362 8.99925 2.67118 6.67419 4.67269 4.67269C6.67419 2.67118 8.99925 1.11362 11.6479 0L12.6862 2.52822C10.3085 3.52144 8.26938 4.86832 6.56885 6.56885C4.86832 8.26938 3.52144 10.3085 2.52822 12.6862ZM11.6479 40C9.02935 38.9165 6.71181 37.3664 4.69526 35.3499C2.67871 33.3333 1.11362 31.0008 0 28.3521L2.52822 27.2686C3.52144 29.6163 4.87585 31.6554 6.59142 33.386C8.307 35.1166 10.3536 36.4786 12.7314 37.4718L11.6479 40ZM28.3521 40L27.3138 37.4718C29.6012 36.5087 31.6253 35.1467 33.386 33.386C35.1467 31.6253 36.5087 29.6012 37.4718 27.3138L40 28.3521C38.9165 30.9707 37.3664 33.2882 35.3499 35.3047C33.3333 37.3213 31.0008 38.8864 28.3521 40ZM20 26.3205H28.1264H11.8736H20Z" fill="#FCF8E8"/>
</svg>
