<svg width="60" height="60" viewBox="0 0 60 60" fill="none" xmlns="http://www.w3.org/2000/svg">
<circle cx="30" cy="30" r="30" fill="#94B49F" fill-opacity="0.2"/>
<path d="M27.8571 25.2308H32.1428V14.4615C32.1428 13.8205 31.9375 13.2756 31.5268 12.8269C31.1161 12.3782 30.6071 12.1538 30 12.1538C29.3928 12.1538 28.8839 12.375 28.4732 12.8173C28.0625 13.2596 27.8571 13.8077 27.8571 14.4615V25.2308ZM19.2857 32.1538H40.7143V27.5385H19.2857V32.1538ZM17 41.3846H21.7857V37.9231C21.7857 37.5961 21.889 37.3221 22.0955 37.101C22.3021 36.8798 22.558 36.7692 22.8634 36.7692C23.1687 36.7692 23.4226 36.8798 23.625 37.101C23.8274 37.3221 23.9286 37.5961 23.9286 37.9231V41.3846H28.9286V37.9231C28.9286 37.5961 29.0318 37.3221 29.2384 37.101C29.445 36.8798 29.7009 36.7692 30.0062 36.7692C30.3116 36.7692 30.5655 36.8798 30.7678 37.101C30.9702 37.3221 31.0714 37.5961 31.0714 37.9231V41.3846H36.0714V37.9231C36.0714 37.5961 36.1747 37.3221 36.3812 37.101C36.5878 36.8798 36.8438 36.7692 37.1491 36.7692C37.4545 36.7692 37.7083 36.8798 37.9107 37.101C38.1131 37.3221 38.2143 37.5961 38.2143 37.9231V41.3846H43L41.2143 33.6923H18.7857L17 41.3846ZM42.0714 43.6923H17.9286C17 43.6923 16.25 43.2949 15.6786 42.5C15.1071 41.7051 14.9405 40.8205 15.1786 39.8461L17.1428 31.3846V28.3077C17.1428 27.4615 17.4226 26.7372 17.9821 26.1346C18.5417 25.532 19.2143 25.2308 20 25.2308H25.7143V14.4615C25.7143 13.1795 26.1309 12.0897 26.9643 11.1923C27.7976 10.2949 28.8095 9.84615 30 9.84615C31.1905 9.84615 32.2024 10.2949 33.0357 11.1923C33.869 12.0897 34.2857 13.1795 34.2857 14.4615V25.2308H40C40.7857 25.2308 41.4583 25.532 42.0178 26.1346C42.5774 26.7372 42.8571 27.4615 42.8571 28.3077V31.3846L44.8214 39.8461C45.0595 40.8205 44.8928 41.7051 44.3214 42.5C43.75 43.2949 43 43.6923 42.0714 43.6923Z" fill="#DF7861" fill-opacity="0.6"/>
</svg>
