<svg width="35" height="35" viewBox="0 0 35 35" fill="none" xmlns="http://www.w3.org/2000/svg">
<g clip-path="url(#clip0_3_203)">
<path d="M15.6979 32.0469C13.7778 31.9497 11.9792 31.5 10.3021 30.6979C8.62499 29.8958 7.16666 28.8446 5.92707 27.5443C4.68749 26.2439 3.70919 24.7337 2.99218 23.0136C2.27516 21.2936 1.91666 19.4557 1.91666 17.5C1.91666 15.4826 2.29947 13.5868 3.06509 11.8125C3.83072 10.0382 4.86978 8.49479 6.18228 7.18229C7.49478 5.86979 9.03818 4.83073 10.8125 4.0651C12.5868 3.29948 14.4826 2.91667 16.5 2.91667C20.1215 2.91667 23.2691 4.05903 25.9427 6.34375C28.6163 8.62847 30.2569 11.4965 30.8646 14.9479H28.6406C28.2274 12.9063 27.3646 11.0833 26.0521 9.47917C24.7396 7.875 23.0989 6.67188 21.1302 5.86979V6.52604C21.1302 7.37674 20.8385 8.11806 20.2552 8.75C19.6719 9.38194 18.9549 9.69792 18.1042 9.69792H14.9323V12.8698C14.9323 13.2727 14.7682 13.6103 14.4401 13.8829C14.112 14.1554 13.7413 14.2917 13.3281 14.2917H10.3021V17.5H14.3125V22.0573H11.8698L4.43228 14.6198C4.31075 15.1059 4.22568 15.588 4.17707 16.066C4.12846 16.544 4.10416 17.022 4.10416 17.5C4.10416 20.7813 5.21006 23.6128 7.42187 25.9948C9.63367 28.3767 12.3924 29.6649 15.6979 29.8594V32.0469ZM29.9896 31.099L25.1042 26.2135C24.5937 26.5781 24.0408 26.8576 23.4453 27.0521C22.8498 27.2465 22.2414 27.3438 21.62 27.3438C19.894 27.3438 18.4268 26.7408 17.2186 25.5348C16.0104 24.3288 15.4062 22.8644 15.4062 21.1415C15.4062 19.4187 16.0092 17.9557 17.2152 16.7526C18.4212 15.5495 19.8856 14.9479 21.6085 14.9479C23.3313 14.9479 24.7943 15.552 25.9974 16.7603C27.2005 17.9685 27.8021 19.4356 27.8021 21.1617C27.8021 21.7831 27.6988 22.3915 27.4922 22.987C27.2856 23.5825 27.0121 24.1476 26.6719 24.6823L31.5573 29.5313L29.9896 31.099ZM21.599 25.1563C22.7205 25.1563 23.6701 24.7691 24.4479 23.9947C25.2257 23.2204 25.6146 22.2725 25.6146 21.151C25.6146 20.0295 25.2274 19.0799 24.453 18.3021C23.6787 17.5243 22.7308 17.1354 21.6093 17.1354C20.4878 17.1354 19.5382 17.5226 18.7604 18.2969C17.9826 19.0713 17.5937 20.0192 17.5937 21.1407C17.5937 22.2622 17.9809 23.2118 18.7553 23.9896C19.5296 24.7674 20.4775 25.1563 21.599 25.1563Z" fill="#FCF8E8"/>
</g>
<defs>
<clipPath id="clip0_3_203">
<rect width="35" height="35" fill="white"/>
</clipPath>
</defs>
</svg>
