<svg width="40" height="40" viewBox="0 0 40 40" fill="none" xmlns="http://www.w3.org/2000/svg">
<path d="M27.5833 37.5L21.6667 31.5833L23.4167 29.8333L27.5417 33.9583L35.2083 26.2917L36.9583 28.0833L27.5833 37.5ZM12.0417 28.0417L10.2917 26.2917L13.25 23.3333L10.2917 20.375L12.0417 18.625L15 21.5833L17.9583 18.625L19.7083 20.375L16.75 23.3333L19.7083 26.2917L17.9583 28.0417L15 25.0833L12.0417 28.0417ZM7.5 36.6667C6.83333 36.6667 6.25 36.4167 5.75 35.9167C5.25 35.4167 5 34.8333 5 34.1667V8.33333C5 7.66667 5.25 7.08333 5.75 6.58333C6.25 6.08333 6.83333 5.83333 7.5 5.83333H10.2083V3.33333H12.9167V5.83333H27.0833V3.33333H29.7917V5.83333H32.5C33.1667 5.83333 33.75 6.08333 34.25 6.58333C34.75 7.08333 35 7.66667 35 8.33333V23L32.5 25.5V16.25H7.5V34.1667H20.7083L23.2083 36.6667H7.5ZM7.5 13.75H32.5V8.33333H7.5V13.75Z" fill="#FCF8E8"/>
</svg>
