<svg width="81" height="27" viewBox="0 0 81 27" fill="none" xmlns="http://www.w3.org/2000/svg">
<path d="M30.9815 17V6.64H33.3755V10.672H37.9815V6.64H40.3685V17H37.9815V12.73H33.3755V17H30.9815ZM45.1625 9.223C46.0631 9.223 46.7865 9.328 47.3325 9.538C47.8785 9.748 48.2821 10.0957 48.5435 10.581C48.8048 11.0617 48.9355 11.7197 48.9355 12.555V17H47.0035L46.8425 16.265H46.7375C46.4855 16.559 46.1728 16.7783 45.7995 16.923C45.4261 17.0677 45.0131 17.14 44.5605 17.14C43.9958 17.14 43.5128 17.0467 43.1115 16.86C42.7101 16.6733 42.4045 16.412 42.1945 16.076C41.9891 15.74 41.8865 15.3527 41.8865 14.914C41.8865 14.186 42.1571 13.6237 42.6985 13.227C43.2445 12.8257 44.0985 12.5877 45.2605 12.513L46.6535 12.408V12.38C46.6535 12.016 46.5905 11.729 46.4645 11.519C46.3431 11.309 46.1448 11.1597 45.8695 11.071C45.5988 10.9823 45.2301 10.938 44.7635 10.938C44.4321 10.938 44.0658 10.966 43.6645 11.022C43.2631 11.078 42.8898 11.1597 42.5445 11.267V9.566C42.9365 9.454 43.3658 9.37 43.8325 9.314C44.2991 9.25333 44.7425 9.223 45.1625 9.223ZM45.2955 15.579C45.5428 15.579 45.7831 15.5393 46.0165 15.46C46.2545 15.3807 46.4668 15.2547 46.6535 15.082V13.682L45.4775 13.773C45.0248 13.8103 44.6981 13.906 44.4975 14.06C44.3015 14.214 44.2035 14.431 44.2035 14.711C44.2035 14.9863 44.2945 15.201 44.4765 15.355C44.6631 15.5043 44.9361 15.579 45.2955 15.579ZM50.6733 9.342H52.6333L52.7663 10.14H52.8713C53.1373 9.85533 53.4593 9.63133 53.8373 9.468C54.2153 9.30467 54.6377 9.223 55.1043 9.223C55.7483 9.223 56.3247 9.356 56.8333 9.622C57.342 9.88333 57.7457 10.2987 58.0443 10.868C58.343 11.4327 58.4923 12.149 58.4923 13.017C58.4923 13.899 58.322 14.6503 57.9813 15.271C57.6453 15.887 57.153 16.3537 56.5043 16.671C55.8603 16.9883 55.081 17.147 54.1663 17.147C53.807 17.147 53.422 17.1213 53.0113 17.07V20.08H50.6733V9.342ZM54.0613 15.383C54.7753 15.383 55.305 15.2057 55.6503 14.851C55.9957 14.4963 56.1683 13.941 56.1683 13.185C56.1683 12.4337 56.019 11.8993 55.7203 11.582C55.4217 11.26 55.0017 11.099 54.4603 11.099C54.185 11.099 53.919 11.148 53.6623 11.246C53.4103 11.3393 53.1933 11.4817 53.0113 11.673V15.278C53.3613 15.348 53.7113 15.383 54.0613 15.383ZM62.7712 17.126C61.8705 17.126 61.1612 16.8717 60.6432 16.363C60.1252 15.8497 59.8662 15.0493 59.8662 13.962V9.342H62.2042V13.829C62.2042 14.305 62.3022 14.6457 62.4982 14.851C62.6942 15.0517 62.9812 15.152 63.3592 15.152C63.6392 15.152 63.9169 15.096 64.1922 14.984C64.4722 14.8673 64.7055 14.7017 64.8922 14.487V9.342H67.2302V17H65.3122L65.1652 16.251H65.0672C64.7545 16.5357 64.3999 16.7527 64.0032 16.902C63.6112 17.0513 63.2005 17.126 62.7712 17.126ZM71.5197 17.147C71.0297 17.147 70.5537 17.1167 70.0917 17.056C69.6297 17 69.205 16.9137 68.8177 16.797V15.166C69.2237 15.2827 69.6553 15.3713 70.1127 15.432C70.57 15.4927 71.0273 15.523 71.4847 15.523C72.0167 15.523 72.397 15.46 72.6257 15.334C72.8543 15.208 72.9687 15.0213 72.9687 14.774C72.9687 14.5873 72.915 14.445 72.8077 14.347C72.7003 14.2443 72.5113 14.1697 72.2407 14.123L70.8687 13.906C70.08 13.78 69.5107 13.535 69.1607 13.171C68.8107 12.807 68.6357 12.3147 68.6357 11.694C68.6357 10.924 68.9577 10.3197 69.6017 9.881C70.2503 9.44233 71.2187 9.223 72.5067 9.223C72.9033 9.223 73.2977 9.24633 73.6897 9.293C74.0863 9.33967 74.4387 9.405 74.7467 9.489V11.12C74.4293 11.0313 74.077 10.9637 73.6897 10.917C73.307 10.8657 72.9243 10.84 72.5417 10.84C71.907 10.84 71.4637 10.91 71.2117 11.05C70.9597 11.19 70.8337 11.3767 70.8337 11.61C70.8337 11.778 70.8873 11.9133 70.9947 12.016C71.102 12.114 71.2887 12.1863 71.5547 12.233L72.9267 12.45C73.6873 12.5713 74.2497 12.8047 74.6137 13.15C74.9823 13.4907 75.1667 13.9993 75.1667 14.676C75.1667 15.1893 75.0243 15.6303 74.7397 15.999C74.4597 16.3677 74.0467 16.6523 73.5007 16.853C72.9547 17.049 72.2943 17.147 71.5197 17.147Z" fill="white"/>
<path d="M15.8229 14.2917L11.7396 10.2083L15.8229 6.125L14.2552 4.55729L10.2083 8.67708L6.16146 4.63021L4.59375 6.19792L8.67708 10.2083L4.59375 14.2917L6.16146 15.8594L10.2083 11.7396L14.2552 15.8594L15.8229 14.2917ZM10.2083 26.25L1.49479 20.0885C1.05729 19.7726 0.698785 19.3958 0.419271 18.9583C0.139757 18.5208 0 18.0347 0 17.5L0 2.1875C0 1.58594 0.214193 1.07096 0.642578 0.642579C1.07096 0.214194 1.58594 8.9407e-07 2.1875 8.9407e-07H18.2292C18.8307 8.9407e-07 19.3457 0.214194 19.7741 0.642579C20.2025 1.07096 20.4167 1.58594 20.4167 2.1875V17.5C20.4167 18.0347 20.2769 18.5208 19.9974 18.9583C19.7179 19.3958 19.3594 19.7726 18.9219 20.0885L10.2083 26.25ZM10.2083 23.5156L18.2292 17.901V2.1875H2.1875L2.1875 17.901L10.2083 23.5156ZM10.2083 2.1875H2.1875H18.2292H10.2083Z" fill="white"/>
</svg>
