<svg width="35" height="35" viewBox="0 0 35 35" fill="none" xmlns="http://www.w3.org/2000/svg">
<path d="M23.1146 18.6667L19.0313 14.5833L23.1146 10.5L21.5469 8.93229L17.5 13.0521L13.4531 9.00521L11.8854 10.5729L15.9688 14.5833L11.8854 18.6667L13.4531 20.2344L17.5 16.1146L21.5469 20.2344L23.1146 18.6667ZM17.5 30.625L8.78648 24.4635C8.34898 24.1476 7.99047 23.7708 7.71096 23.3333C7.43144 22.8958 7.29169 22.4097 7.29169 21.875L7.29169 6.5625C7.29169 5.96094 7.50588 5.44596 7.93427 5.01758C8.36265 4.58919 8.87762 4.375 9.47919 4.375H25.5209C26.1224 4.375 26.6374 4.58919 27.0658 5.01758C27.4942 5.44596 27.7084 5.96094 27.7084 6.5625V21.875C27.7084 22.4097 27.5686 22.8958 27.2891 23.3333C27.0096 23.7708 26.6511 24.1476 26.2136 24.4635L17.5 30.625ZM17.5 27.8906L25.5209 22.276V6.5625H9.47919L9.47919 22.276L17.5 27.8906ZM17.5 6.5625H9.47919H25.5209H17.5Z" fill="#B10015"/>
</svg>
