<svg width="47" height="47" viewBox="0 0 47 47" fill="none" xmlns="http://www.w3.org/2000/svg">
<g clip-path="url(#clip0_59_130)">
<path d="M31.0795 34.6051C30.8086 34.7133 30.5311 34.7065 30.2467 34.5845C29.9624 34.4626 29.7661 34.2662 29.6579 33.9954C29.5406 33.7019 29.5452 33.4187 29.6717 33.1457C29.7981 32.8727 29.9968 32.682 30.2676 32.5738C31.5992 32.0416 32.6138 31.322 33.3114 30.415C34.009 29.5079 34.2134 28.6933 33.9248 27.9711C33.7173 27.452 33.1814 27.0772 32.3172 26.8468C31.4529 26.6164 30.4024 26.5913 29.1657 26.7715L30.1209 24.5444C31.7142 24.4049 32.9948 24.5801 33.9628 25.0701C34.9308 25.5601 35.5952 26.2565 35.956 27.1592C36.5604 28.6714 36.3388 30.1145 35.2914 31.4886C34.2439 32.8626 32.8399 33.9014 31.0795 34.6051ZM16.2679 28.9818C14.6972 29.2431 13.4605 29.1615 12.558 28.737C11.6554 28.3125 11.0598 27.7391 10.7711 27.0169C10.4554 26.227 10.4647 25.3987 10.7989 24.5323C11.1331 23.6658 12.2077 22.4249 14.0225 20.8096C15.2956 19.6725 16.0789 18.8491 16.3724 18.3391C16.6659 17.8292 16.7225 17.3485 16.5421 16.8971C16.3166 16.3329 15.8744 15.9469 15.2155 15.7391C14.5565 15.5313 13.708 15.6348 12.6698 16.0498C12.0604 16.2933 11.5729 16.5798 11.2072 16.9092C10.8415 17.2386 10.5571 17.6402 10.3538 18.114C10.2454 18.3668 10.057 18.5664 9.78836 18.713C9.51977 18.8597 9.23655 18.8878 8.93868 18.7974C8.61825 18.7161 8.39827 18.5423 8.27874 18.276C8.15921 18.0096 8.14913 17.7388 8.2485 17.4635C8.43373 16.8136 8.84463 16.1717 9.4812 15.5378C10.1178 14.9038 10.91 14.3974 11.8579 14.0185C13.3927 13.4051 14.7693 13.2802 15.9878 13.6439C17.2064 14.0076 18.0682 14.8214 18.5733 16.0853C18.9432 17.0106 18.935 17.9235 18.5489 18.8238C18.1627 19.7241 17.1729 20.8985 15.5792 22.3468C14.2926 23.5154 13.472 24.3604 13.1176 24.8816C12.7631 25.4028 12.6581 25.8439 12.8024 26.205C12.9467 26.5662 13.389 26.7886 14.1292 26.8723C14.8693 26.956 15.9074 26.901 17.2435 26.7073L16.2679 28.9818ZM30.976 17.0568L24.9107 14.4554L25.8252 12.3231C26.0691 11.7544 26.4393 11.3709 26.9358 11.1724C27.4324 10.974 27.9649 10.9967 28.5336 11.2406L30.8081 12.2161C31.3767 12.46 31.7602 12.8302 31.9587 13.3267C32.1571 13.8233 32.1344 14.3558 31.8905 14.9245L30.976 17.0568ZM18.7571 37.1743L20.179 36.606L27.1906 20.2581L25.2004 19.4045L18.1888 35.7524L18.7571 37.1743ZM17.5377 40.0174L15.8057 35.6841L24.0367 16.493L30.1021 19.0944L21.8711 38.2855L17.5377 40.0174Z" fill="#76549A"/>
</g>
<defs>
<clipPath id="clip0_59_130">
<rect width="35" height="35" fill="white" transform="translate(0.755005 13.7446) rotate(-21.7856)"/>
</clipPath>
</defs>
</svg>
