<svg width="35" height="35" viewBox="0 0 35 35" fill="none" xmlns="http://www.w3.org/2000/svg">
<g clip-path="url(#clip0_3_224)">
<path d="M13.4531 18.6302C13.1128 18.6302 12.8151 18.5026 12.5599 18.2474C12.3047 17.9922 12.1771 17.6944 12.1771 17.3542C12.1771 17.0139 12.3047 16.7161 12.5599 16.4609C12.8151 16.2057 13.1128 16.0781 13.4531 16.0781C13.7934 16.0781 14.0911 16.2057 14.3464 16.4609C14.6016 16.7161 14.7292 17.0139 14.7292 17.3542C14.7292 17.6944 14.6016 17.9922 14.3464 18.2474C14.0911 18.5026 13.7934 18.6302 13.4531 18.6302ZM21.5833 18.6302C21.2431 18.6302 20.9453 18.5026 20.6901 18.2474C20.4349 17.9922 20.3073 17.6944 20.3073 17.3542C20.3073 17.0139 20.4349 16.7161 20.6901 16.4609C20.9453 16.2057 21.2431 16.0781 21.5833 16.0781C21.9236 16.0781 22.2214 16.2057 22.4766 16.4609C22.7318 16.7161 22.8594 17.0139 22.8594 17.3542C22.8594 17.6944 22.7318 17.9922 22.4766 18.2474C22.2214 18.5026 21.9236 18.6302 21.5833 18.6302ZM4.375 30.625V28.4375H6.05208V6.5625C6.05208 5.97917 6.27083 5.46875 6.70833 5.03125C7.14583 4.59375 7.65625 4.375 8.23958 4.375H26.7604C27.3437 4.375 27.8542 4.59375 28.2917 5.03125C28.7292 5.46875 28.9479 5.97917 28.9479 6.5625V28.4375H30.625V30.625H4.375ZM8.23958 28.4375H16.4062V6.5625H8.23958V28.4375ZM18.5937 28.4375H26.7604V6.5625H18.5937V28.4375Z" fill="#FCF8E8"/>
</g>
<defs>
<clipPath id="clip0_3_224">
<rect width="35" height="35" fill="white"/>
</clipPath>
</defs>
</svg>
