<svg width="393" height="125" viewBox="0 0 393 125" fill="none" xmlns="http://www.w3.org/2000/svg">
<path d="M392.019 4.22324L383.898 14.6718C375.776 25.1203 359.534 46.0173 343.17 47.8434C326.807 49.7994 310.321 32.3595 293.859 18.7208C277.396 4.95211 260.955 -5.34022 244.647 5.16036C228.338 15.6609 212.162 46.9544 195.787 47.0586C179.413 47.1627 162.84 16.0774 146.443 12.7053C130.047 9.46302 113.825 33.609 97.5063 42.4851C81.1874 51.3612 64.7672 44.3178 48.3492 37.5992C31.9311 30.8807 15.511 23.8373 7.3024 20.543L-0.907043 17.1187L-0.510381 79.4975L7.67695 79.4454C15.8643 79.3933 32.239 79.2892 48.6136 79.1851C64.9883 79.0809 81.363 78.9768 97.7376 78.8727C114.112 78.7686 130.487 78.6644 146.862 78.5603C163.236 78.4562 179.611 78.3521 195.986 78.2479C212.36 78.1438 228.735 78.0397 245.11 77.9356C261.484 77.8314 277.859 77.7273 294.234 77.6232C310.608 77.5191 326.983 77.4149 343.358 77.3108C359.732 77.2067 376.107 77.1026 384.294 77.0505L392.482 76.9984L392.019 4.22324Z" fill="#DF7861"/>
<path d="M393.785 124.994L0.793097 127.493L0.306948 51.0419L393.299 48.5429L393.785 124.994Z" fill="#DF7861"/>
</svg>
