<svg width="38" height="38" viewBox="0 0 38 38" fill="none" xmlns="http://www.w3.org/2000/svg">
<path d="M0.25 37.75V8.84375H8.84375V0.25H29.1562V17.4375H37.75V37.75H21.7604V29.1562H16.2396V37.75H0.25ZM3.375 34.625H8.84375V29.1562H3.375V34.625ZM3.375 26.0312H8.84375V20.5625H3.375V26.0312ZM3.375 17.4375H8.84375V11.9687H3.375V17.4375ZM11.9687 26.0312H17.4375V20.5625H11.9687V26.0312ZM11.9687 17.4375H17.4375V11.9687H11.9687V17.4375ZM11.9687 8.84375H17.4375V3.375H11.9687V8.84375ZM20.5625 26.0312H26.0312V20.5625H20.5625V26.0312ZM20.5625 17.4375H26.0312V11.9687H20.5625V17.4375ZM20.5625 8.84375H26.0312V3.375H20.5625V8.84375ZM29.1562 34.625H34.625V29.1562H29.1562V34.625ZM29.1562 26.0312H34.625V20.5625H29.1562V26.0312Z" fill="#0D29BF"/>
</svg>
