<svg width="35" height="35" viewBox="0 0 35 35" fill="none" xmlns="http://www.w3.org/2000/svg">
<g clip-path="url(#clip0_3_210)">
<path d="M16.4063 27.8177H18.5938V22.8958H23.5156V20.7083H18.5938V15.7865H16.4063V20.7083H11.4844V22.8958H16.4063V27.8177ZM8.02084 32.0833C7.41928 32.0833 6.90431 31.8691 6.47592 31.4408C6.04754 31.0124 5.83334 30.4974 5.83334 29.8958V14.0729C5.83334 13.4714 6.04754 12.9564 6.47592 12.528C6.90431 12.0996 7.41928 11.8854 8.02084 11.8854H10.5729V8.38542C10.5729 6.46892 11.2487 4.83528 12.6002 3.4845C13.9518 2.13372 15.5863 1.45833 17.5039 1.45833C19.4214 1.45833 21.0547 2.13372 22.4037 3.4845C23.7526 4.83528 24.4271 6.46892 24.4271 8.38542V11.8854H26.9792C27.5807 11.8854 28.0957 12.0996 28.5241 12.528C28.9525 12.9564 29.1667 13.4714 29.1667 14.0729V29.8958C29.1667 30.4974 28.9525 31.0124 28.5241 31.4408C28.0957 31.8691 27.5807 32.0833 26.9792 32.0833H8.02084ZM8.02084 29.8958H26.9792V14.0729H8.02084V29.8958ZM12.7604 11.8854H22.2396V8.38542C22.2396 7.06886 21.7792 5.94979 20.8585 5.02822C19.9377 4.10663 18.8197 3.64583 17.5043 3.64583C16.1889 3.64583 15.0695 4.10663 14.1458 5.02822C13.2222 5.94979 12.7604 7.06886 12.7604 8.38542V11.8854Z" fill="#FCF8E8"/>
</g>
<defs>
<clipPath id="clip0_3_210">
<rect width="35" height="35" fill="white"/>
</clipPath>
</defs>
</svg>
