<svg width="60" height="60" viewBox="0 0 60 60" fill="none" xmlns="http://www.w3.org/2000/svg">
<circle cx="30" cy="30" r="30" fill="#94B49F" fill-opacity="0.2"/>
<path d="M18.65 42L17.1625 40.425L31.6125 25.125H26.5833V28.125H24.4583V22.875H32.3563C32.6868 22.875 33.0056 22.9375 33.3125 23.0625C33.6194 23.1875 33.891 23.375 34.1271 23.625L38.3771 28.0875C39.0618 28.8125 39.8528 29.3625 40.75 29.7375C41.6472 30.1125 42.5917 30.325 43.5833 30.375V32.625C42.3556 32.575 41.175 32.3313 40.0417 31.8938C38.9083 31.4563 37.9167 30.775 37.0667 29.85L35.4375 28.125L31.4 32.4L34.4458 35.625L25.8042 40.9125L24.7417 38.9625L30.975 35.1375L28.0708 32.0625L18.65 42ZM15.25 31.5V29.25H22.3333V31.5H15.25ZM12.4167 26.625V24.375H19.5V26.625H12.4167ZM38.9792 23.625C38.2944 23.625 37.7101 23.3688 37.226 22.8563C36.742 22.3438 36.5 21.725 36.5 21C36.5 20.275 36.742 19.6563 37.226 19.1438C37.7101 18.6312 38.2944 18.375 38.9792 18.375C39.6639 18.375 40.2483 18.6312 40.7323 19.1438C41.2163 19.6563 41.4583 20.275 41.4583 21C41.4583 21.725 41.2163 22.3438 40.7323 22.8563C40.2483 23.3688 39.6639 23.625 38.9792 23.625ZM15.25 21.75V19.5H22.3333V21.75H15.25Z" fill="#DF7861" fill-opacity="0.6"/>
</svg>
