<svg width="40" height="30" viewBox="0 0 40 30" fill="none" xmlns="http://www.w3.org/2000/svg">
<path d="M0 30V0H2.72727V20.2051H18.7727V4.35897H33.4091C35.2216 4.35897 36.7732 5.08708 38.0639 6.54328C39.3546 7.99949 40 9.75002 40 11.7949V30H37.2727V23.2821H2.72727V30H0ZM10.4545 17.2308C9.09091 17.2308 7.94697 16.7094 7.02273 15.6667C6.09849 14.6239 5.63636 13.3333 5.63636 11.7949C5.63636 10.2564 6.09849 8.96581 7.02273 7.92308C7.94697 6.88034 9.09091 6.35897 10.4545 6.35897C11.8182 6.35897 12.9621 6.88034 13.8864 7.92308C14.8106 8.96581 15.2727 10.2564 15.2727 11.7949C15.2727 13.3333 14.8106 14.6239 13.8864 15.6667C12.9621 16.7094 11.8182 17.2308 10.4545 17.2308ZM21.5 20.2051H37.2727V11.7949C37.2727 10.5962 36.8944 9.57 36.1378 8.71636C35.3811 7.86272 34.4716 7.4359 33.4091 7.4359H21.5V20.2051ZM10.4545 14.1538C11.0303 14.1538 11.5227 13.9231 11.9318 13.4615C12.3409 13 12.5455 12.4444 12.5455 11.7949C12.5455 11.1453 12.3409 10.5897 11.9318 10.1282C11.5227 9.66667 11.0303 9.4359 10.4545 9.4359C9.87879 9.4359 9.38636 9.66667 8.97727 10.1282C8.56818 10.5897 8.36364 11.1453 8.36364 11.7949C8.36364 12.4444 8.56818 13 8.97727 13.4615C9.38636 13.9231 9.87879 14.1538 10.4545 14.1538Z" fill="#FCF8E8"/>
</svg>
