<svg width="93" height="30" viewBox="0 0 93 30" fill="none" xmlns="http://www.w3.org/2000/svg">
<path d="M43.2916 19.133C42.1762 19.133 41.1402 18.9813 40.1836 18.678V16.774C40.6316 16.928 41.1426 17.0493 41.7166 17.138C42.2906 17.222 42.8202 17.264 43.3056 17.264C44.0102 17.264 44.5166 17.1637 44.8246 16.963C45.1326 16.7577 45.2866 16.4567 45.2866 16.06C45.2866 15.8407 45.2399 15.6587 45.1466 15.514C45.0532 15.3693 44.8946 15.2457 44.6706 15.143C44.4512 15.0357 44.1409 14.9353 43.7396 14.842L42.9276 14.667C41.8962 14.443 41.1402 14.0883 40.6596 13.603C40.1789 13.113 39.9386 12.4667 39.9386 11.664C39.9386 10.6513 40.3212 9.872 41.0866 9.326C41.8519 8.78 42.9836 8.507 44.4816 8.507C44.9716 8.507 45.4406 8.535 45.8886 8.591C46.3366 8.647 46.7426 8.724 47.1066 8.822V10.726C46.7566 10.6187 46.3552 10.5347 45.9026 10.474C45.4546 10.4087 45.0089 10.376 44.5656 10.376C43.7536 10.376 43.1726 10.4787 42.8226 10.684C42.4726 10.8893 42.2976 11.1833 42.2976 11.566C42.2976 11.776 42.3372 11.951 42.4166 12.091C42.5006 12.2263 42.6382 12.3453 42.8296 12.448C43.0256 12.546 43.2986 12.637 43.6486 12.721L44.4676 12.896C45.5829 13.1387 46.3902 13.505 46.8896 13.995C47.3936 14.485 47.6456 15.129 47.6456 15.927C47.6456 16.5897 47.4706 17.1613 47.1206 17.642C46.7752 18.1227 46.2759 18.4913 45.6226 18.748C44.9692 19.0047 44.1922 19.133 43.2916 19.133ZM49.0065 19V11.342H51.3445V19H49.0065ZM50.1755 10.229C49.6948 10.229 49.3355 10.131 49.0975 9.935C48.8595 9.73433 48.7405 9.445 48.7405 9.067C48.7405 8.68433 48.8595 8.395 49.0975 8.199C49.3355 7.99833 49.6948 7.898 50.1755 7.898C50.6562 7.898 51.0155 7.99833 51.2535 8.199C51.4915 8.395 51.6105 8.68433 51.6105 9.067C51.6105 9.445 51.4915 9.73433 51.2535 9.935C51.0155 10.131 50.6562 10.229 50.1755 10.229ZM62.1301 11.223C62.9794 11.223 63.6491 11.4797 64.1391 11.993C64.6291 12.5063 64.8741 13.3067 64.8741 14.394V19H62.5431V14.52C62.5431 14.044 62.4474 13.7057 62.2561 13.505C62.0694 13.2997 61.8034 13.197 61.4581 13.197C61.2014 13.197 60.9611 13.2437 60.7371 13.337C60.5178 13.4257 60.3288 13.561 60.1701 13.743C60.1888 13.911 60.1981 14.1117 60.1981 14.345V19H57.9091V14.52C57.9091 14.0393 57.8204 13.6987 57.6431 13.498C57.4704 13.2973 57.2114 13.197 56.8661 13.197C56.5954 13.197 56.3364 13.2553 56.0891 13.372C55.8464 13.4887 55.6458 13.6567 55.4871 13.876V19H53.1491V11.342H55.0671L55.2211 12.105H55.3261C55.6108 11.8157 55.9444 11.5963 56.3271 11.447C56.7144 11.2977 57.1368 11.223 57.5941 11.223C58.0468 11.223 58.4504 11.3047 58.8051 11.468C59.1598 11.6313 59.4491 11.881 59.6731 12.217C60.0278 11.8717 60.4151 11.6197 60.8351 11.461C61.2551 11.3023 61.6868 11.223 62.1301 11.223ZM66.6159 11.342H68.5759L68.7089 12.14H68.8139C69.0799 11.8553 69.4019 11.6313 69.7799 11.468C70.1579 11.3047 70.5802 11.223 71.0469 11.223C71.6909 11.223 72.2672 11.356 72.7759 11.622C73.2846 11.8833 73.6882 12.2987 73.9869 12.868C74.2856 13.4327 74.4349 14.149 74.4349 15.017C74.4349 15.899 74.2646 16.6503 73.9239 17.271C73.5879 17.887 73.0956 18.3537 72.4469 18.671C71.8029 18.9883 71.0236 19.147 70.1089 19.147C69.7496 19.147 69.3646 19.1213 68.9539 19.07V22.08H66.6159V11.342ZM70.0039 17.383C70.7179 17.383 71.2476 17.2057 71.5929 16.851C71.9382 16.4963 72.1109 15.941 72.1109 15.185C72.1109 14.4337 71.9616 13.8993 71.6629 13.582C71.3642 13.26 70.9442 13.099 70.4029 13.099C70.1276 13.099 69.8616 13.148 69.6049 13.246C69.3529 13.3393 69.1359 13.4817 68.9539 13.673V17.278C69.3039 17.348 69.6539 17.383 70.0039 17.383ZM78.7418 11.223C79.6424 11.223 80.3658 11.328 80.9118 11.538C81.4578 11.748 81.8614 12.0957 82.1228 12.581C82.3841 13.0617 82.5148 13.7197 82.5148 14.555V19H80.5828L80.4218 18.265H80.3168C80.0648 18.559 79.7521 18.7783 79.3788 18.923C79.0054 19.0677 78.5924 19.14 78.1398 19.14C77.5751 19.14 77.0921 19.0467 76.6908 18.86C76.2894 18.6733 75.9838 18.412 75.7738 18.076C75.5684 17.74 75.4658 17.3527 75.4658 16.914C75.4658 16.186 75.7364 15.6237 76.2778 15.227C76.8238 14.8257 77.6778 14.5877 78.8398 14.513L80.2328 14.408V14.38C80.2328 14.016 80.1698 13.729 80.0438 13.519C79.9224 13.309 79.7241 13.1597 79.4488 13.071C79.1781 12.9823 78.8094 12.938 78.3428 12.938C78.0114 12.938 77.6451 12.966 77.2438 13.022C76.8424 13.078 76.4691 13.1597 76.1238 13.267V11.566C76.5158 11.454 76.9451 11.37 77.4118 11.314C77.8784 11.2533 78.3218 11.223 78.7418 11.223ZM78.8748 17.579C79.1221 17.579 79.3624 17.5393 79.5958 17.46C79.8338 17.3807 80.0461 17.2547 80.2328 17.082V15.682L79.0568 15.773C78.6041 15.8103 78.2774 15.906 78.0768 16.06C77.8808 16.214 77.7828 16.431 77.7828 16.711C77.7828 16.9863 77.8738 17.201 78.0558 17.355C78.2424 17.5043 78.5154 17.579 78.8748 17.579ZM84.2526 11.342H86.1706L86.3246 12.098H86.4296C86.7329 11.818 87.0923 11.6033 87.5076 11.454C87.9229 11.3 88.3663 11.223 88.8376 11.223C89.7196 11.223 90.4149 11.4797 90.9236 11.993C91.4369 12.5063 91.6936 13.3067 91.6936 14.394V19H89.3556V14.527C89.3556 14.0463 89.2553 13.7057 89.0546 13.505C88.8539 13.2997 88.5553 13.197 88.1586 13.197C87.8646 13.197 87.5753 13.253 87.2906 13.365C87.0106 13.477 86.7773 13.6427 86.5906 13.862V19H84.2526V11.342Z" fill="white"/>
<g clip-path="url(#clip0_48_83)">
<path d="M32.0834 15.9375H27.2344L23.4063 23.75H16.0417V15.9375H11.6667V18.125C11.6667 18.6406 11.4525 19.082 11.0241 19.4492C10.5957 19.8164 10.0807 20 9.47919 20H5.10419C4.50262 20 3.98765 19.8164 3.55927 19.4492C3.13088 19.082 2.91669 18.6406 2.91669 18.125L2.91669 11.875C2.91669 11.3594 3.13088 10.918 3.55927 10.5508C3.98765 10.1836 4.50262 10 5.10419 10H9.47919C10.0807 10 10.5957 10.1836 11.0241 10.5508C11.4525 10.918 11.6667 11.3594 11.6667 11.875V14.0625H16.0417V6.25H23.4063L27.2344 14.0625H32.0834V15.9375ZM9.47919 18.125V11.875H5.10419L5.10419 18.125H9.47919ZM24.8646 15.9375L18.2292 15.9375V21.875H21.9479L24.8646 15.9375ZM24.8646 14.0625L21.9479 8.125H18.2292V14.0625H24.8646Z" fill="#FCF8E8"/>
</g>
<defs>
<clipPath id="clip0_48_83">
<path d="M27.7778 30C12.4365 30 0 17.5635 0 2.22222C0 0.994921 0.994923 0 2.22222 0H5C21.5685 0 35 13.4315 35 30L27.7778 30Z" fill="white"/>
</clipPath>
</defs>
</svg>
