<svg width="35" height="35" viewBox="0 0 35 35" fill="none" xmlns="http://www.w3.org/2000/svg">
<path d="M16.0417 30.625V28.4375H28.4375V17.3542C28.4375 15.9444 28.1337 14.5894 27.526 13.2891C26.9184 11.9887 26.1042 10.8403 25.0833 9.84375C24.0625 8.84722 22.8958 8.05122 21.5833 7.45573C20.2708 6.86024 18.9097 6.5625 17.5 6.5625C16.0903 6.5625 14.7292 6.86024 13.4167 7.45573C12.1042 8.05122 10.9375 8.84722 9.91666 9.84375C8.89582 10.8403 8.08159 11.9887 7.47395 13.2891C6.86631 14.5894 6.56249 15.9444 6.56249 17.3542V26.25H5.83332C5.03124 26.25 4.34461 25.9644 3.77343 25.3932C3.20225 24.822 2.91666 24.1354 2.91666 23.3333V20.4167C2.91666 19.8576 3.05034 19.3655 3.3177 18.9401C3.58506 18.5148 3.93749 18.1684 4.37499 17.901L4.48436 15.9687C4.70311 14.1944 5.20746 12.5903 5.99739 11.1562C6.78732 9.72222 7.77169 8.50694 8.95051 7.51042C10.1293 6.51389 11.454 5.74219 12.9245 5.19531C14.395 4.64844 15.9201 4.375 17.5 4.375C19.1042 4.375 20.6415 4.64844 22.112 5.19531C23.5825 5.74219 24.901 6.51997 26.0677 7.52865C27.2344 8.53733 28.2127 9.7526 29.0026 11.1745C29.7925 12.5964 30.2969 14.1823 30.5156 15.9323L30.625 17.8281C31.0625 18.0469 31.4149 18.3689 31.6823 18.7943C31.9496 19.2196 32.0833 19.6875 32.0833 20.1979V23.5521C32.0833 24.0868 31.9496 24.5608 31.6823 24.974C31.4149 25.3872 31.0625 25.7031 30.625 25.9219V28.4375C30.625 29.0391 30.4108 29.554 29.9824 29.9824C29.554 30.4108 29.0391 30.625 28.4375 30.625H16.0417ZM13.125 20.0521C12.8333 20.0521 12.5781 19.9427 12.3594 19.724C12.1406 19.5052 12.0312 19.2439 12.0312 18.9401C12.0312 18.6363 12.1406 18.3811 12.3594 18.1745C12.5781 17.9679 12.8394 17.8646 13.1432 17.8646C13.447 17.8646 13.7022 17.9694 13.9088 18.179C14.1154 18.3887 14.2187 18.6484 14.2187 18.9583C14.2187 19.25 14.1139 19.5052 13.9043 19.724C13.6947 19.9427 13.4349 20.0521 13.125 20.0521ZM21.875 20.0521C21.5833 20.0521 21.3281 19.9427 21.1094 19.724C20.8906 19.5052 20.7812 19.2439 20.7812 18.9401C20.7812 18.6363 20.8906 18.3811 21.1094 18.1745C21.3281 17.9679 21.5894 17.8646 21.8932 17.8646C22.197 17.8646 22.4522 17.9694 22.6588 18.179C22.8654 18.3887 22.9687 18.6484 22.9687 18.9583C22.9687 19.25 22.8639 19.5052 22.6543 19.724C22.4447 19.9427 22.1849 20.0521 21.875 20.0521ZM8.78645 18.1562C8.68923 16.7222 8.88975 15.4219 9.38801 14.2552C9.88627 13.0885 10.5547 12.0981 11.3932 11.2839C12.2318 10.4696 13.1979 9.84375 14.2917 9.40625C15.3854 8.96875 16.4792 8.75 17.5729 8.75C19.7847 8.75 21.6441 9.44878 23.151 10.8464C24.658 12.2439 25.5816 13.9878 25.9219 16.0781C23.6371 16.0538 21.6259 15.4401 19.888 14.237C18.1502 13.0339 16.8073 11.4722 15.8594 9.55208C15.4705 11.5208 14.6502 13.2648 13.3984 14.7839C12.1467 16.303 10.6094 17.4271 8.78645 18.1562Z" fill="#FCF8E8"/>
</svg>
